<?xml version="1.0" encoding="UTF-8"?>
<svg xmlns="http://www.w3.org/2000/svg" width="26" height="26" viewBox="0 0 26 26">
	<path d="M12.999 1a.293.293 0 00-.024.002.314.314 0 00-.086.017h-.001a.35.35 0 00-.032.013h0a.329.329 0 00-.03.016h-.002a.318.318 0 00-.027.018h0a.342.342 0 00-.019.014l-.003.003-.001.001L1.12 11.003a.34.34 0 00-.12.258v3.489a.343.343 0 00.027.12.37.37 0 00.093.128l11.656 9.92.005.004a.345.345 0 00.044.03l.012.008a.34.34 0 00.05.021l.013.005a.339.339 0 00.069.013l.017.001h.034a.434.434 0 00.067-.012.445.445 0 00.05-.017l.013-.006a.354.354 0 00.071-.045l.003-.002 11.656-9.92a.356.356 0 00.03-.03.336.336 0 00.09-.216V11.26a.34.34 0 00-.12-.259L13.234 1.091l-.01-.008h0a.345.345 0 00-.052-.037l-.001-.001a.225.225 0 00-.013-.007.344.344 0 00-.017-.008h0l-.003-.001a.297.297 0 00-.013-.006.362.362 0 00-.015-.005l-.006-.002A.358.358 0 0013.008 1h-.007H13h0zM13 2.089l5.42 10.448L13 15.64l-5.42-3.104L13 2.088zm-1.11.648l-5.01 9.658h0l-5.191 1.86v-2.836L11.89 2.736zm2.22 0l10.201 8.682v2.836l-2.618-.938-2.573-.922-5.01-9.658zm4.798 10.308l5.076 1.818-10.64 9.054v-7.685l5.564-3.187z" fill-rule="nonzero" stroke-width="0.5"></path>
</svg>