<?xml version="1.0" encoding="UTF-8"?>
<svg xmlns="http://www.w3.org/2000/svg" viewBox="0 0 24 26">
	<path d="M11.943 1h-.012a.357.357 0 00-.005 0 .35.35 0 00-.098.019l-6.867 2.26a.348.348 0 00-.173.127L.572 9.246a.346.346 0 00-.072.212l.038 7.202c0 .073.023.145.067.204l4.283 5.804a.345.345 0 00.01.013l.008.01.016.017.01.01.017.014.011.009.03.02s0 0 0 0a.35.35 0 00.035.018l.003.001.03.012.005.001 6.892 2.19a.35.35 0 00.215 0l6.776-2.304a.317.317 0 00.225-.13l.004-.004a.354.354 0 00.063-.086l4.195-5.71a.346.346 0 00.067-.207l-.038-7.183v-.017a.346.346 0 00-.067-.205l-4.283-5.805a.348.348 0 00-.174-.125l-6.893-2.19a.35.35 0 00-.012-.004h-.003A.345.345 0 0011.962 1L11.942 1h0zm.345.822l6.33 2.011 3.883 5.263-3.923.6-6.29-4.21V1.822zm-.697.005V5.49l-6.135 4.32-3.993-.612 3.825-5.297 6.303-2.075zm.354 4.265l6.142 4.112-2.121 6.863-7.874.018-2.142-6.773.878-.618 5.117-3.602zm10.823 3.665l.035 6.674-3.868 5.243-.105-.194-2.231-4.104 2.166-7.006h0l2.374-.364 1.63-.249zm-6.752 8.003l.782 1.438 1.627 2.995-6.366 2.095-6.388-2.03 2.376-4.479 7.969-.019z" fill-rule="nonzero" stroke-width="0.5"></path>
</svg>