<?xml version="1.0" encoding="UTF-8"?>
<svg xmlns="http://www.w3.org/2000/svg" width="22" height="26" viewBox="0 0 22 26">
  <path d="M10.99 1h-.009a.304.304 0 00-.131.04.33.33 0 00-.01.004L1.16 6.878a.336.336 0 00-.16.287V18.836a.307.307 0 00.014.096s0 0 0 0c.024.081.076.149.145.19l9.681 5.834a.39.39 0 00.023.012l.01.005a.302.302 0 00.023.009l.004.002c.016.005.032.01.048.012l.008.001.023.003h.04a.377.377 0 00.07-.014l.015-.004a.242.242 0 00.028-.012.31.31 0 00.028-.015l9.68-5.833a.31.31 0 00.045-.033.324.324 0 00.094-.137.323.323 0 00.02-.104l.001-.015V7.167v-.002a.263.263 0 00-.002-.033.353.353 0 00-.023-.095s0 0 0 0a.33.33 0 00-.131-.157l-.004-.002-9.68-5.834a.344.344 0 00-.147-.043L11.007 1h-.017 0zm-.31.911v4.742l-8.129.156 8.13-4.898zm.64 0l8.129 4.898-8.13-.156V1.91zm.272 5.414l3.066.059 5.597.108-1.467 5.16-1.237 4.35-5.96-9.677zm-1.184 0l-5.96 9.677-1.888-6.644-.815-2.866 4.942-.095 3.72-.072zm.592.272l6.074 9.864H4.925l3.335-5.416L11 7.597zm9.36 1.867v8.91l-2.306-.795 2.307-8.115zM5.119 18.128h11.764l-5.426 5.6-.456.47-5.882-6.07zm12.627.047l1.258.433.9.31-6.915 4.166 4.757-4.909z" fill="#FFF" fill-rule="nonzero" stroke="#FFF" stroke-width="0.5"/>
</svg>