<?xml version="1.0" encoding="UTF-8"?>
<svg xmlns="http://www.w3.org/2000/svg" width="26" height="26" viewBox="0 0 26 26">
	<path d="M12.988 1h-.003a.36.36 0 00-.096.016.403.403 0 00-.103.049.385.385 0 00-.077.068l-11.611 13.3a.398.398 0 00.04.563l11.611 9.912a.377.377 0 00.082.053.387.387 0 00.177.039h.014a.37.37 0 00.229-.092h0l11.61-9.912a.398.398 0 00.041-.562L13.292 1.133a.41.41 0 00-.015-.015l-.008-.009a.387.387 0 00-.022-.02l-.007-.005a.39.39 0 00-.023-.017l-.01-.006a.382.382 0 00-.167-.058.406.406 0 00-.051-.003h0zm.191 1.455l10.746 12.293L13.18 23.91V2.455z" fill-rule="nonzero" stroke-width="0.5"></path>
</svg>