<?xml version="1.0" encoding="UTF-8"?>
<svg xmlns="http://www.w3.org/2000/svg" width="22" height="26" viewBox="0 0 22 26">
	<path d="M.54 19.037c.03.055.075.101.13.132l10.112 5.787.006.003a.34.34 0 00.015.008l.015.007a.24.24 0 00.016.006l.015.005a.252.252 0 00.051.011.3.3 0 00.048.004h.019a.257.257 0 00.066-.011.337.337 0 00.063-.024l.012-.006a.414.414 0 00.008-.004l10.164-5.877a.336.336 0 00.168-.29L21.5 7.125v-.01a.341.341 0 00-.073-.2.336.336 0 00-.096-.083L11.218 1.044a.335.335 0 00-.334.001L.72 6.922a.35.35 0 00-.047.033.336.336 0 00-.12.257L.5 18.876c0 .038.013.091.04.16zm10.746 5.044l.034-7.66.015-3.227 9.492-5.488-.05 10.886-9.49 5.489zM1.561 7.21l9.492-5.488 9.438 5.4L11 12.614l-3.266-1.87L1.56 7.211z" fill-rule="nonzero" stroke-width="0.5"></path>
</svg>