<?xml version="1.0" encoding="UTF-8"?>
<svg xmlns="http://www.w3.org/2000/svg" width="24" height="26" viewBox="0 0 24 26">
	<path d="M12.414 1.001l-.019.002h-.01a.294.294 0 00-.027.005l-.003.001a.349.349 0 00-.06.02h0a.312.312 0 00-.099.067L.594 12.771a.324.324 0 00-.059.083v.001a.326.326 0 00-.034.12v.016l-.001.017.001.016.002.016a.283.283 0 00.013.062l.01.027.002.003c.016.036.038.07.066.098l11.602 11.675c.13.13.34.126.465-.01L23.406 13.23l.003-.004.021-.024.019-.027.016-.028h0v-.003l.012-.026.003-.008.008-.023h0l.001-.005.006-.026.001-.01.003-.021v-.016l.001-.016-.001-.02-.001-.012-.004-.023-.002-.008-.006-.023-.002-.009-.01-.027-.001-.002h0l-.012-.024-.003-.005-.017-.027-.035-.042L12.652 1.096v-.001a.33.33 0 00-.078-.057v-.001a.327.327 0 00-.086-.03l-.006-.002a.387.387 0 00-.028-.003L12.451 1h0L12.424 1h-.005-.005v.001zm-.312 1.108l2.385 13.097L1.6 12.676 12.102 2.11zm.645 0L22.4 12.677l-7.268 2.53-2.385-13.098zm2.385 13.746l7.268-2.53-9.653 10.567 2.385-8.037z" fill-rule="nonzero" stroke-width="0.5"></path>
</svg>