<svg xmlns="http://www.w3.org/2000/svg" width="16" height="16" viewBox="0 0 16 16"><g fill="none" fill-rule="evenodd" stroke="none" stroke-width="1"><g fill="#D2232A" transform="translate(-902 -935)"><g transform="translate(740 808.258)"><g transform="translate(137 102)"><path d="M37.556 31.696l-3.929-4.86a1 1 0 01.106-1.368l.05-.046a.955.955 0 011.385.107l5.324 6.584a1 1 0 010 1.258l-5.324 6.584a.955.955 0 01-1.385.106l-.05-.045a1 1 0 01-.106-1.37l3.93-4.859H26a1 1 0 01-1-1v-.09a1 1 0 011-1h11.556z" transform="scale(1 -1) rotate(90 65.742 0)"></path></g></g></g></g></svg>